<?xml version="1.0" encoding="UTF-8"?>
<svg id="Layer_1" data-name="Layer 1" xmlns="http://www.w3.org/2000/svg" viewBox="0 0 496.46 249.52">
  <defs>
    <style>
      .cls-1 {
        fill: #fff;
      }
    </style>
  </defs>
  <path class="cls-1" d="M496.46,0v249.52H0V0h496.46ZM32,35.15h-14.13c-1.09,8.59-.51,17.53-.55,26.24-.01,2.88,0,5.73,0,8.6-.02,13.14-.1,26.28.06,39.41.76.4,1.57.63,2.44.61,2.97-.05,7.86-.76,10.98-1.16.56-.07,1.96-.29,2.09-.9l2.28-51.48c1.1-.27,1.11.4,1.62.97,2.26,2.48,6.26,8.21,8.42,11.18,4.45,6.14,8.35,12.79,12.69,19.01,1.21.87,8.11.92,9.26-.04,7.25-10.2,13.25-21.22,20.34-31.51.35-.51-.1-1.07,1.28-.75.77,8.41-.07,16.65-.02,25.09.05,8.07-.06,16.13-.03,24.18,0,1.76.91,3.76.72,5.67l.77.96h14.99c1.44,0,1.94-6.74,2.04-8.33,1.16-19.05-.62-38.05-.05-57.1.09-2.97,1.13-6.3.6-9.49-6.24.22-12.69-1.6-18.8-.05-8.23,14.19-16.02,28.85-26.47,41.53-11.94-12.85-20.15-28.61-30.56-42.63ZM238.71,35.73h-15.86c-.82.51-.8,1.15-.89,1.99-.95,8.07.37,18.88.39,27.21.02,11.36-.49,22.66-.36,33.91.03,2.37-.49,9.08.86,10.66s11.26,0,13.82-.03c4.34-.05,8.69.6,12.69.63,7.6.04,15.29.13,22.84-.28l.46-.69c-.14-1.69.89-7.62-.86-8.19l-33.65-1.23.58-63.97ZM193.64,60.09c-24.95,1.2-29.24,35.56-11.62,48.16,3.86,2.76,9.06,3.4,13.72,3.58,6.45.25,13.27-.21,17.92-5.2l-3.18-7.22c-3.71-.6-7.16.83-11.11.16-12.06-2.05-15.02-22.52-4.78-25.83,5.82-1.88,9.22-.1,14.78.37l1.06-8.59c-.89-2.8-13.93-5.56-16.77-5.42ZM161.95,62.32l-8.5-1.17-2.09,9.14c-10.34-13.03-30.24-9.18-34.17,7.35-2.92,12.29-.67,25.86,11.58,31.95,7.47,3.72,13,2.6,19.61-1.93,1.12-.77,2.89-3.52,3.25-1.33.33,2.01-.48,2.76,1.99,3.78,3.07,1.26,5.74-.25,8.9-.12l-.58-47.67ZM326.86,62.32c-9.92-2.58-8.92-1.1-9.73,7.99-4.61-2.84-6.39-6.85-12.39-7.49-16.92-1.83-23.9,10.25-23.93,25.65-.03,13.67,14.36,27.94,28.26,21.9,2.39-1.04,5.3-4.31,6.64-4.9s.65,2.55,1.47,3.7c1.62,2.28,8.22,1.23,10.67.36l-.98-47.21ZM419.77,90.47c-2.14-.22-3.4,1.88-5,2.78-4.32,2.42-9.49,4.64-14.23,1.75-2.37-1.45-5.49-6.86-2.89-9.05,4.44-1,14.49.32,18.07-1.54,2.39-1.25,1.06-11.18-.05-13.75-3.82-8.81-13.32-10.5-22.17-9.6-16.46,1.67-19.86,24.99-11.9,36.73,6.45,9.52,23.07,12.75,32.59,6.42.74-.49,5.57-4.99,5.57-5.38v-8.36ZM480.31,108.63v-24.2c0-.56-2.73-9.6-3.19-10.64-3.71-8.5-14.63-13.31-23.55-12.62-5.17.4-9.41,3.51-13.9,5.7l-.87-4.62h-9.23c.14,10.85-.18,21.73-.02,32.58.02,1.37.61,2.6.62,3.98.03,2.5-1.89,6.63.27,8.96h10.38c.41,0,2.84-.82,3.1-1.51-.52-4.82.74-9.19,1.21-13.77.63-6.08-.16-19.08,8.41-20.41,7.69-1.2,11.32,2.12,13.02,9.39,1.37,5.86.49,10.1.45,15.64-.03,3.74,1.21,7.9.62,11.83,2.11-.41,12.01,1.89,12.69-.29ZM346.25,63.97c-2.75-.36-6.11.26-8.94,0-.11,8.39.64,16.7.6,25.1-.02,5.22-.84,11.45-.63,16.66.22,5.55,6.04,4.27,9.85,2.81.02-6.59-.17-13.52.56-20.07.57-5.13.5-10.56,6.32-12.13,4.91-1.32,6.79,2.39,7.59,6.57,1.57.13,10,.38,10.34-.85-.09-11.91-13.57-21.84-23.67-12.9l.03-4.25c-.07-.26-1.77-.9-2.05-.94ZM393.82,129.66l-9.8-1.74-4.04,48.41c-3.87-.38-7.41-4.08-11.29-4.56-4.86-.61-12.18,1-16.08,4-17.63,13.52-5.16,44.75,17.22,41.99,3.68-.45,6.26-2.91,9.86-3.4l1.25,4.07c2.44-.16,9.55,1.47,10.46-1.58.73-2.46-.04-8.91.09-12.01.84-19.89.31-39.99,1.2-59.88.23-5.13-.39-10.27,1.13-15.29ZM161.9,146.25l.45-5.11c-.23-.32-6.43-1.55-7.54-1.68-13.95-1.65-37.6-2.93-47.55,8.94-8.19,9.77-1.37,24.97,9.67,29.49,7.33,2.99,23.57,2.95,26.9,11.15,1.75,4.31-2.95,11.33-6.41,13.71-10.12,6.96-23.57,3.49-34.79,1.83l3.02,10.8c9.63,2.49,20.17,3.22,30.15,3.05,1.81-.03,4.73.05,6.23-.06,13.57-1.06,30.57-13.33,25.93-28.67-3.83-12.68-26.4-12.59-36.54-17.08-7.67-3.4-8.72-14.55-2.58-19.92,6.88-6.02,24.49-5.08,33.04-6.45ZM204.48,166.76c-3.53-2.29-8.63-2.35-12.75-1.94s-9.85,4.34-12.4,7.78c-5.09,6.84-4.64,17.66-4.06,25.95.79,11.36,6.86,20.04,18.77,21,16.46,1.32,19.14-13.78,19.33-26.76.13-8.83-.68-20.7-8.89-26.02ZM283.98,214.37h10.38c5.55,0,3.47-7.6,3.75-11.23s.67-8.5,1.15-12.1c.71-5.24,2.31-12.08,8.4-12.92,6.98-.97,10.16,1.17,12.45,7.62,2.31,6.5.87,11.8,1,17.97.07,3.45.99,7.63.88,11.27.36.52,11.47,2.05,12.43.25v-25.36c0-1.31-3.39-10.92-4.36-12.35-4.73-6.94-9.59-8.23-17.11-9.88-.48-.1-.42-.99-.84-1.09-3.27-.78-7.21.64-10.14,1.84s-6.04,2.83-8.48,5.06c-.16-8.34-4.47-5.2-10.39-5.19.12,10.66-.14,21.34-.02,32.01.02,1.52.64,2.95.65,4.59s-1.79,8.88.23,9.51ZM222.28,168.85c-1.84,0-.79,10.25-.84,11.84-.13,4.04-.9,7.78-.6,12.07,1.15,16.27,11.84,26.01,28.39,23.77,3.28-.44,7.13-2.19,9.96-3.87,1.49,1.08.38,3.08,1.38,4.37,1.49,1.91,8.71-.48,11.22.15l.87-.86.39-46.34-12.12-.55c-3.3.28-1.35,5.37-1.42,7.8-.11,3.67-.34,9.05-.64,12.57-.27,3.18-1.93,11.74-3.97,13.95-3.45,3.73-9.91,4.86-13.29.55-4.55-5.81-4.23-24.05-4.07-31.72.03-1.46,1.17-2.79-.26-3.72h-14.99Z"/>
  <path d="M32,35.15c10.41,14.03,18.62,29.78,30.56,42.63,10.45-12.68,18.24-27.34,26.47-41.53,6.1-1.55,12.56.27,18.8.05.52,3.19-.51,6.51-.6,9.49-.57,19.05,1.21,38.05.05,57.1-.1,1.59-.6,8.33-2.04,8.33h-14.99l-.77-.96c.19-1.91-.71-3.91-.72-5.67-.03-8.05.08-16.11.03-24.18-.05-8.44.79-16.68.02-25.09-1.38-.32-.93.24-1.28.75-7.09,10.3-13.09,21.31-20.34,31.51-1.15.96-8.05.91-9.26.04-4.35-6.22-8.25-12.86-12.69-19.01-2.15-2.97-6.16-8.7-8.42-11.18-.51-.56-.52-1.24-1.62-.97l-2.28,51.48c-.13.6-1.53.82-2.09.9-3.12.41-8.02,1.12-10.98,1.16-.87.01-1.68-.22-2.44-.61-.16-13.13-.08-26.28-.06-39.41,0-2.87-.01-5.72,0-8.6.04-8.72-.54-17.66.55-26.24h14.13Z"/>
  <path d="M161.9,146.25c-8.55,1.37-26.16.43-33.04,6.45-6.14,5.37-5.09,16.52,2.58,19.92,10.13,4.49,32.7,4.4,36.54,17.08,4.64,15.34-12.35,27.62-25.93,28.67-1.5.12-4.43.03-6.23.06-9.98.17-20.53-.56-30.15-3.05l-3.02-10.8c11.21,1.66,24.67,5.13,34.79-1.83,3.47-2.38,8.16-9.41,6.41-13.71-3.33-8.19-19.57-8.15-26.9-11.15-11.05-4.51-17.87-19.72-9.67-29.49,9.95-11.87,33.59-10.59,47.55-8.94,1.11.13,7.31,1.37,7.54,1.68l-.45,5.11Z"/>
  <path d="M393.82,129.66c-1.53,5.02-.9,10.16-1.13,15.29-.89,19.89-.36,39.99-1.2,59.88-.13,3.1.64,9.55-.09,12.01-.91,3.05-8.02,1.42-10.46,1.58l-1.25-4.07c-3.6.49-6.18,2.95-9.86,3.4-22.38,2.76-34.85-28.47-17.22-41.99,3.9-2.99,11.22-4.6,16.08-4,3.88.49,7.42,4.19,11.29,4.56l4.04-48.41,9.8,1.74ZM366.56,184.5c-.86.25-2.96,2.65-3.42,3.54-2.94,5.71.98,18.7,7.58,14.49,5.77-3.68,5.61-16.35-1.68-17.87-.89-.19-1.56-.43-2.49-.15Z"/>
  <path d="M161.95,62.32l.58,47.67c-3.16-.13-5.83,1.38-8.9.12-2.48-1.02-1.66-1.76-1.99-3.78-.36-2.18-2.13.56-3.25,1.33-6.61,4.53-12.14,5.65-19.61,1.93-12.25-6.09-14.5-19.66-11.58-31.95,3.93-16.53,23.83-20.38,34.17-7.35l2.09-9.14,8.5,1.17ZM138.23,76.75c-7.23,1.6-6.53,18.71,1.01,18.38.68-.03,4.26-1.19,4.87-1.54,4.37-2.46,2.79-18.76-5.88-16.84Z"/>
  <path d="M326.86,62.32l.98,47.21c-2.45.86-9.05,1.92-10.67-.36-.82-1.16-.13-4.29-1.47-3.7s-4.25,3.86-6.64,4.9c-13.89,6.04-28.28-8.23-28.26-21.9.03-15.4,7.02-27.48,23.93-25.65,6,.65,7.78,4.66,12.39,7.49.81-9.09-.19-10.57,9.73-7.99ZM303.15,76.77c-8.13,2.13-6.55,23.69,5.48,17.02,5.39-2.99,2.83-19.19-5.48-17.02Z"/>
  <path d="M204.48,166.76c8.21,5.32,9.02,17.2,8.89,26.02-.19,12.98-2.87,28.08-19.33,26.76-11.91-.96-17.98-9.64-18.77-21-.57-8.29-1.03-19.11,4.06-25.95,2.55-3.43,8.18-7.36,12.4-7.78s9.22-.35,12.75,1.94ZM196.56,189.08l-2.17.02c-.89,2.47-1.61,6.85,1.36,7.97,1.23-.09,1.73-6.75.8-7.99Z"/>
  <path d="M222.28,168.85h14.99c1.43.93.29,2.26.26,3.72-.17,7.67-.48,25.91,4.07,31.72,3.38,4.31,9.83,3.19,13.29-.55,2.04-2.21,3.7-10.77,3.97-13.95.3-3.52.54-8.9.64-12.57.07-2.43-1.88-7.51,1.42-7.8l12.12.55-.39,46.34-.87.86c-2.51-.63-9.74,1.76-11.22-.15-1-1.29.11-3.29-1.38-4.37-2.83,1.68-6.68,3.43-9.96,3.87-16.55,2.24-27.23-7.51-28.39-23.77-.3-4.29.46-8.02.6-12.07.05-1.59-1-11.84.84-11.84Z"/>
  <path d="M238.71,35.73l-.58,63.97,33.65,1.23c1.76.57.73,6.5.86,8.19l-.46.69c-7.55.4-15.24.32-22.84.28-4-.02-8.35-.68-12.69-.63-2.55.03-12.41,1.68-13.82.03s-.83-8.29-.86-10.66c-.13-11.24.38-22.55.36-33.91-.02-8.33-1.34-19.14-.39-27.21.1-.84.07-1.48.89-1.99h15.86Z"/>
  <path d="M283.98,214.37c-2.02-.63-.22-7.83-.23-9.51s-.64-3.07-.65-4.59c-.12-10.67.14-21.35.02-32.01,5.91-.02,10.22-3.15,10.39,5.19,2.44-2.23,5.41-3.81,8.48-5.06s6.87-2.62,10.14-1.84c.42.1.36.99.84,1.09,7.52,1.65,12.38,2.93,17.11,9.88.98,1.43,4.36,11.04,4.36,12.35v25.36c-.97,1.79-12.07.27-12.43-.25.12-3.64-.8-7.82-.88-11.27-.13-6.17,1.32-11.48-1-17.97-2.3-6.45-5.47-8.59-12.45-7.62-6.09.84-7.69,7.68-8.4,12.92-.49,3.6-.87,8.42-1.15,12.1s1.79,11.23-3.75,11.23h-10.38Z"/>
  <path d="M480.31,108.63c-.67,2.18-10.58-.12-12.69.29.59-3.92-.65-8.09-.62-11.83.04-5.54.92-9.78-.45-15.64-1.7-7.27-5.33-10.58-13.02-9.39-8.56,1.33-7.78,14.33-8.41,20.41-.47,4.58-1.73,8.95-1.21,13.77-.26.69-2.69,1.51-3.1,1.51h-10.38c-2.16-2.33-.24-6.46-.27-8.96-.02-1.39-.6-2.61-.62-3.98-.15-10.85.17-21.73.02-32.58h9.23l.87,4.62c4.49-2.18,8.74-5.3,13.9-5.7,8.92-.69,19.85,4.13,23.55,12.62.46,1.05,3.19,10.09,3.19,10.64v24.2Z"/>
  <path d="M419.77,90.47v8.36c0,.39-4.83,4.88-5.57,5.38-9.52,6.33-26.14,3.1-32.59-6.42-7.96-11.74-4.56-35.06,11.9-36.73,8.85-.9,18.34.79,22.17,9.6,1.11,2.57,2.44,12.51.05,13.75-3.57,1.86-13.63.54-18.07,1.54-2.6,2.2.52,7.6,2.89,9.05,4.74,2.9,9.91.67,14.23-1.75,1.61-.9,2.86-3,5-2.78ZM405.93,77.79c.53-8.26-9.77-7.78-9.21-.01,3.2.59,6.01.91,9.21.01Z"/>
  <path d="M193.64,60.09c2.84-.14,15.87,2.62,16.77,5.42l-1.06,8.59c-5.55-.47-8.96-2.25-14.78-.37-10.23,3.31-7.28,23.78,4.78,25.83,3.96.67,7.4-.75,11.11-.16l3.18,7.22c-4.65,4.99-11.47,5.45-17.92,5.2-4.66-.18-9.86-.82-13.72-3.58-17.62-12.59-13.33-46.95,11.62-48.16Z"/>
  <path d="M346.25,63.97c.28.04,1.98.68,2.05.94l-.03,4.25c10.11-8.94,23.58,1,23.67,12.9-.34,1.24-8.77.98-10.34.85-.79-4.18-2.68-7.89-7.59-6.57-5.82,1.56-5.75,6.99-6.32,12.13-.73,6.55-.54,13.48-.56,20.07-3.81,1.46-9.63,2.73-9.85-2.81-.21-5.21.6-11.44.63-16.66.04-8.4-.71-16.71-.6-25.1,2.83.26,6.19-.36,8.94,0Z"/>
  <path class="cls-1" d="M366.56,184.5c.94-.27,1.61-.03,2.49.15,7.28,1.52,7.45,14.19,1.68,17.87-6.6,4.21-10.53-8.78-7.58-14.49.46-.88,2.56-3.29,3.42-3.54Z"/>
  <path class="cls-1" d="M138.23,76.75c8.67-1.92,10.25,14.38,5.88,16.84-.61.34-4.19,1.51-4.87,1.54-7.55.33-8.24-16.78-1.01-18.38Z"/>
  <path class="cls-1" d="M303.15,76.77c8.32-2.17,10.88,14.03,5.48,17.02-12.03,6.67-13.61-14.89-5.48-17.02Z"/>
  <path class="cls-1" d="M196.56,189.08c.93,1.23.43,7.9-.8,7.99-2.98-1.12-2.25-5.5-1.36-7.97l2.17-.02Z"/>
  <path class="cls-1" d="M405.93,77.79c-3.2.9-6.01.57-9.21-.01-.56-7.76,9.74-8.24,9.21.01Z"/>
</svg>