<?xml version="1.0" encoding="UTF-8"?>
<svg id="Layer_1" xmlns="http://www.w3.org/2000/svg" viewBox="120 140 1000 1000">
  <defs>
    <style>
      .cls-1 {
        letter-spacing: 0em;
      }

      .cls-2 {
      }

      .cls-3 {
        letter-spacing: -.03em;
      }

      .cls-4 {
        letter-spacing: 0em;
      }

      .cls-5 {
        fill: #fff;
        font-family: Mukta-Regular, Mukta;
        font-size: 99.74px;
      }

      .cls-6 {
        fill: #fff;
      }
    </style>
  </defs>
  <g>
    <path class="cls-2" d="M1238.39,1238.39c-412.8,0-825.6,0-1238.39,0C0,825.6,0,412.8,0,0c412.8,0,825.59,0,1238.39,0,0,412.8,0,825.6,0,1238.39ZM294.85,404.7c-.72-.73-1.45-1.47-2.17-2.2,7.14-10.03,14.11-20.19,21.6-29.95,1.07-1.4,4.93-1.83,6.98-1.15,31.95,10.59,60.35,1.26,87.37-15.44,4.96-3.06,9.22-7.25,15.04-11.91-15.63-7.04-30.17-7.14-44.35-5.4-14.37,1.76-28.46,5.87-42.67,8.95,6.65-7.89,14.29-18.24,23.32-19.65,33.04-5.16,56.96-23.27,76.89-48.07,6.69-8.32,11.32-18.3,17.59-28.68-38.99-.96-87.81,32.22-100.16,66.61-4.02,11.19-13.15,16.4-22.1,22.53,10.75-28.35,13.49-56.49,4.35-86.29-26.44,21.33-39.38,72.65-27.45,103.24,1.18,3.03,2.01,7.77.49,10.01-7.3,10.74-15.47,20.9-23.33,31.26,3.07-32.77.35-64.06-16.64-93.72-24.68,29.68-27.87,91.5-7.33,121.55,1.64,2.39,4.21,5.9,3.5,7.86-4.46,12.28-9.72,24.27-14.72,36.36-3.77-34.93-14.69-65.25-39.45-92.06-7.09,17.99-7.79,34.43-6.45,50.84,2.26,27.52,9.74,53,31.83,71.97,1.86,1.6,3.38,5.2,3,7.53-2.2,13.2-5.03,26.29-7.64,39.41-11.78-35.38-30.7-65.05-63.89-87.72,0,11.74-1.06,20.81.19,29.54,4.82,33.67,16.33,65,45.33,84.77,13.07,8.91,18.03,17.68,16.67,32.19-.5,5.32.46,10.77.5,16.16.02,2.34-.62,4.68-1.32,9.46-18.8-33.22-41.73-58.05-76.97-69.36,1.96,12.23,4.19,23.92,8.87,34.54,14.57,33.02,34.49,61.15,71.87,71.49,1.46.4,3.48,1.55,3.84,2.77,4.17,14.32,8.07,28.72,12.01,42.98-14.37-10.98-27.58-22.37-42.08-31.79-14.78-9.61-31.12-16.28-49.76-16.81.18,2.35.05,3.39.36,4.29,10.89,31.92,55.17,80.2,99.37,80.45,3,.02,7.48,1.08,8.74,3.18,6.48,10.79,12.13,22.08,18.08,33.19-31.43-20.1-64.44-31.41-104-27.54,3.49,5.03,5.51,8.42,7.99,11.42,13.54,16.37,30.12,28.91,49.32,37.86,20.21,9.42,41.05,15.26,63.64,9.57,2.04-.51,5.37-.24,6.6,1.07,9.01,9.63,17.65,19.61,26.4,29.48-39.73-14.99-78.76-16.68-120.32-2.26,15.09,14.93,31.49,23.28,49.05,29.13,31.09,10.36,62.3,14.92,93.15-1.46,2.02-1.07,5.75-1.33,7.46-.16,10.66,7.29,20.97,15.09,31.39,22.72-40.47-4.36-78.55-.48-113.62,23.27,13.82,6.77,27.6,13.09,42.07,16.26,31.55,6.91,63.89,8.35,92.13-9.48,13.6-8.59,23.48-9.17,36.02-1.51,4.25,2.6,9.33,3.83,13.93,5.9,1.79.81,3.31,2.23,5.94,4.05-58.3,8.48-97.57,25.07-107.64,45.49,3.56,1.17,6.98,2.53,10.52,3.42,20.62,5.15,41.47,5.37,62.19,1.34,26.57-5.16,51.33-14.09,69.03-36.51,1.7-2.15,6.59-3.06,9.7-2.6,17.3,2.59,34.54,5.64,51.74,8.83,6.35,1.18,10.3.48,11.05-7.2.73-7.48-1.09-10.16-9.32-11.49-24.54-3.97-48.83-9.53-73.22-14.44-6.54-1.32-7.42-4.6-5.5-10.91,2.61-8.61,4.9-17.67,5.13-26.6.99-37.56-12.14-70.62-34.36-100.31-4.44-5.93-10.18-10.89-17.23-18.3-12.29,56.52-3.86,105.2,32.7,147.9-.73.75-1.47,1.51-2.2,2.26-22.63-11.15-45.26-22.31-67.75-33.38,23.72-56.57,14.22-132.02-19.94-161.33-20.72,49.56-21.53,98,2.13,146.76-25.07-15.76-46.4-35.12-65.43-58.22,20.08-17.88,30.26-40.17,34.95-65.34,4.66-24.99,4.94-49.66-4.51-76.2-32.85,36.03-46.92,76.04-42.41,122.9-1.68-.5-3.05-.48-3.41-1.07-10.24-16.6-20.51-33.19-30.3-50.05-.83-1.43.88-5.97,2.64-7.01,31.48-18.7,45.44-48.73,52.95-82.52,2.46-11.08,2.19-22.76,3.17-34.17-1.25-.29-2.49-.59-3.74-.88-35.95,24.43-57.29,58.36-64.88,102.19-6.73-17.63-11.67-35.31-17.19-52.81-2.51-7.96-1.49-12.63,7.64-14.45,4.45-.89,8.75-3.49,12.65-6.04,29.91-19.54,46.13-48.25,54.3-82.17.55-2.27-.28-4.87-.6-9.14-38.34,17.6-64.45,44.1-77.19,83.45-1.15-.36-2.3-.71-3.45-1.07v-67.49c40.99-6.54,82.15-38.74,88.52-70.19-17.97-.1-33.96,5.83-47.95,15.52-14.1,9.76-26.65,21.75-41.44,34.06,3.94-20.28,7.78-40.04,11.56-59.52,48.86,2.7,96.08-18.13,107.83-47.96-38.64-2.91-72.05,6.82-100.07,33.83-.9-.64-1.79-1.29-2.69-1.93,8.01-18.26,16.03-36.52,23.96-54.6,40.5,13.92,92.96,4.87,107.44-18.15-32.86-12.47-64.6-11.01-95.85,4.88ZM915,811.22c-18.33,22.59-39.95,41.68-64.89,57.72,23.56-48.77,22.73-97.21,1.7-148.11-13.81,15.9-21.5,32.61-26.7,50.3-11.03,37.5-13.58,74.81,7.89,112.32-23.47,11.34-45.87,22.16-68.28,32.99-.79-1.02-1.57-2.04-2.36-3.06,18.6-19.3,29.68-42.22,34.57-68.2,4.81-25.53,6.05-50.82-2.89-77.36-19.13,17.41-31.31,36.98-39.79,58.9-11.72,30.3-16.4,61.09-3.56,92.65-2.89,1.34-4.89,2.76-7.09,3.22-24.36,5.05-48.69,10.27-73.16,14.69-6.36,1.15-11.02,1.27-10,9.79.92,7.69,3.63,10.48,11.64,8.88,16.81-3.36,33.72-6.37,50.71-8.66,3.74-.5,8.51,1.82,11.85,4.19,10.35,7.34,19.4,16.91,30.48,22.73,24.11,12.66,50.61,16.1,77.56,14.08,11.03-.83,21.89-3.98,35.44-6.58-32.29-31.04-68.68-43.67-109.52-46.58,8.8-4.96,17.69-8.06,25.87-12.46,8.64-4.65,15.27-4.82,23.52,1.89,6.81,5.53,15.84,8.99,24.43,11.53,24.8,7.32,50.05,6.78,74.89.39,13.71-3.53,26.86-9.26,40.26-14.01-.23-1.32-.46-2.65-.7-3.97-34.65-21.74-73.01-25.19-113.12-20.35,9.71-8.12,19.06-15.32,28.97-21.62,2.7-1.72,7.35-1.66,10.69-.8,8.75,2.24,17.09,6.43,25.91,7.95,31.95,5.53,61.48-2.97,89.45-17.72,8.64-4.55,16.39-10.78,24.54-16.25-.45-1.12-.9-2.24-1.35-3.36-39-13.56-77.76-11.39-116.79,3.49,3.21-5.14,7.42-8.91,10.58-13.41,9.03-12.89,19.26-16.99,36.54-16.38,43.61,1.54,76.47-21.83,102.79-55.07.89-1.13.9-2.95,1.51-5.12-37.86-3.44-70.83,7.47-101.53,28.18,4.51-10.55,9.26-20.45,15.1-29.64,2.1-3.3,6.55-5.96,10.45-7.05,7.06-1.98,14.96-1.38,21.74-3.93,36.26-13.65,61.21-39.47,77.44-74.19.81-1.73.87-3.8,1.66-7.51-37.69,5.07-66.44,23.71-91.65,49.95,1.11-7.62,3.66-14.46,4.95-21.54,2.67-14.72,8.6-23.6,24.25-30.67,36.8-16.65,55.09-49.84,64.87-87.91,1.03-4.01,1.36-8.21,2.37-14.59-36.02,14.36-59.65,38.85-78.04,72.24,0-14.97.25-27.25-.11-39.52-.18-6.13,2.2-9.22,7.36-12.75,9.6-6.56,19.33-13.79,26.61-22.7,16.35-20,25.03-43.72,27.91-69.38.94-8.4.89-16.92,1.3-25.38-1.24-.34-2.47-.68-3.71-1.02-31.09,20.6-49.19,50.83-60.69,86.07-3.45-13.38-6.14-26.19-8.27-39.09-.4-2.44.61-6.25,2.38-7.73,20.59-17.14,28.59-40.46,31.68-65.71,2.28-18.66,1.89-37.46-5.91-57.54-24.95,26.8-35.65,57.5-38.58,91.84-6.83-18.33-24.71-35.19-5.45-55.6,1.28-1.36,1.65-3.67,2.18-5.61,9.49-34.44,5.31-67.31-11.42-98.73-1.05-1.98-1.97-4.03-3.7-7.59-17.78,32.33-20.82,63.34-16.64,95.71-8.85-10.23-16.71-20.29-24.18-30.63-1.29-1.79-2-5.24-1.17-7.14,12.8-29.33,5.56-56.78-7.88-83.44-4.11-8.16-10-15.42-16.43-25.13-7.83,16.74-7.96,31.59-6.39,46.1,1.55,14.26,5.48,28.26,8.58,43.4-9.59-8.46-18.03-15.65-23.38-27.59-14.82-33.05-43.66-50.08-76.95-60.45-6.07-1.89-12.55-2.45-18.84-3.62l-1.58,2.75c4.31,7.47,7.97,15.41,13.03,22.33,19.28,26.34,43.15,46.32,76.54,51.89,10.01,1.67,22.93,11.71,26.92,22.39-27.93-11.75-55.92-15.64-85.83-5.96,22.5,25.68,68.44,38.6,98.55,28.91,2.72-.88,7.41-2.19,8.35-1.02,8.14,10.14,15.64,20.81,23.32,31.32-.78.66-1.55,1.32-2.33,1.98-31.43-15.54-63.19-17.3-95.46-2.93,29.98,21.46,61.96,32.28,98.31,19.09,5.98-2.17,9.11-1.92,11.7,4.23,4.18,9.93,9.16,19.51,13.44,29.4,2.66,6.14,4.66,12.58,6.95,18.88-43.68-29.22-81.91-40.82-101.68-29.59,16.38,28.15,62.79,50.35,96.63,45.58,7.58-1.07,11.23.51,12.52,8.22,1.89,11.28,4.55,22.43,6.57,33.68,1.01,5.63,1.35,11.39,2,17.09-23.51-28.78-51.86-45.78-88.93-50.88,8.54,33.37,42.59,59.92,92.01,72.63-1.01,21.87-2.04,44.17-3.07,66.48-1.13.11-2.25.22-3.38.33-12.77-39.18-38.68-65.77-77.27-81.1.65,8.9,1.98,17.39,4.97,25.25,11.6,30.53,29.1,56.63,60.37,69.75,9.16,3.84,11.95,7.12,8.86,16.47-5.62,17.04-10.45,34.34-15.61,51.53-1-.09-1.99-.17-2.99-.26-6.11-43.72-27.06-77.77-64.19-102.51-1.17,2.33-1.98,3.19-1.98,4.05-.15,46.05,14.01,85.43,53.57,112.44,5.06,3.45,6.34,6.17,3.31,11.31-6.49,11.03-12.63,22.26-19.26,33.21-3.34,5.52-7.42,10.6-11.17,15.88,2.07-47.58-11.7-87.76-44.69-121.06-13.62,51.4-8.75,98.66,29.98,139.51Z"/>
    <path class="cls-6" d="M294.85,404.7c31.25-15.89,62.99-17.35,95.85-4.88-14.48,23.02-66.94,32.07-107.44,18.15-7.93,18.08-15.95,36.34-23.96,54.6.9.64,1.79,1.29,2.69,1.93,28.01-27,61.43-36.74,100.07-33.83-11.76,29.83-58.98,50.66-107.83,47.96-3.78,19.47-7.62,39.23-11.56,59.52,14.79-12.31,27.34-24.3,41.44-34.06,13.99-9.69,29.98-15.62,47.95-15.52-6.36,31.44-47.52,63.65-88.52,70.19v67.49c1.15.36,2.3.71,3.45,1.07,12.74-39.35,38.85-65.85,77.19-83.45.33,4.28,1.15,6.87.6,9.14-8.18,33.92-24.39,62.63-54.3,82.17-3.9,2.55-8.2,5.15-12.65,6.04-9.13,1.82-10.15,6.49-7.64,14.45,5.52,17.5,10.45,35.18,17.19,52.81,7.59-43.82,28.93-77.75,64.88-102.19,1.25.29,2.49.59,3.74.88-.98,11.41-.71,23.09-3.17,34.17-7.52,33.79-21.47,63.82-52.95,82.52-1.75,1.04-3.46,5.58-2.64,7.01,9.8,16.86,20.06,33.45,30.3,50.05.37.6,1.73.57,3.41,1.07-4.51-46.86,9.56-86.87,42.41-122.9,9.45,26.54,9.17,51.2,4.51,76.2-4.7,25.17-14.88,47.46-34.95,65.34,19.03,23.1,40.36,42.45,65.43,58.22-23.65-48.76-22.84-97.2-2.13-146.76,34.16,29.31,43.66,104.76,19.94,161.33,22.48,11.08,45.11,22.23,67.75,33.38.73-.75,1.47-1.51,2.2-2.26-36.55-42.69-44.99-91.37-32.7-147.9,7.05,7.41,12.79,12.37,17.23,18.3,22.21,29.69,35.35,62.75,34.36,100.31-.24,8.93-2.52,17.99-5.13,26.6-1.92,6.32-1.03,9.6,5.5,10.91,24.39,4.92,48.68,10.47,73.22,14.44,8.23,1.33,10.06,4.01,9.32,11.49-.75,7.68-4.71,8.38-11.05,7.2-17.2-3.2-34.44-6.25-51.74-8.83-3.12-.47-8.01.45-9.7,2.6-17.7,22.42-42.46,31.35-69.03,36.51-20.72,4.02-41.57,3.81-62.19-1.34-3.54-.88-6.96-2.25-10.52-3.42,10.07-20.42,49.34-37.01,107.64-45.49-2.63-1.83-4.15-3.25-5.94-4.05-4.6-2.08-9.68-3.3-13.93-5.9-12.53-7.66-22.42-7.08-36.02,1.51-28.24,17.84-60.58,16.4-92.13,9.48-14.47-3.17-28.25-9.49-42.07-16.26,35.07-23.75,73.15-27.64,113.62-23.27-10.42-7.63-20.73-15.43-31.39-22.72-1.71-1.17-5.44-.91-7.46.16-30.85,16.37-62.06,11.82-93.15,1.46-17.57-5.86-33.97-14.2-49.05-29.13,41.56-14.42,80.59-12.73,120.32,2.26-8.75-9.87-17.38-19.86-26.4-29.48-1.23-1.31-4.56-1.59-6.6-1.07-22.59,5.69-43.43-.14-63.64-9.57-19.2-8.95-35.78-21.49-49.32-37.86-2.48-3-4.49-6.39-7.99-11.42,39.55-3.86,72.57,7.45,104,27.54-5.94-11.11-11.6-22.4-18.08-33.19-1.26-2.1-5.74-3.16-8.74-3.18-44.21-.25-88.48-48.53-99.37-80.45-.31-.9-.18-1.95-.36-4.29,18.64.53,34.98,7.21,49.76,16.81,14.5,9.42,27.71,20.81,42.08,31.79-3.94-14.25-7.84-28.65-12.01-42.98-.35-1.21-2.38-2.36-3.84-2.77-37.38-10.35-57.31-38.47-71.87-71.49-4.68-10.61-6.92-22.31-8.87-34.54,35.23,11.31,58.17,36.15,76.97,69.36.7-4.78,1.33-7.12,1.32-9.46-.04-5.39-1-10.84-.5-16.16,1.36-14.51-3.6-23.27-16.67-32.19-28.99-19.77-40.51-51.1-45.33-84.77-1.25-8.73-.19-17.79-.19-29.54,33.19,22.68,52.11,52.34,63.89,87.72,2.62-13.13,5.45-26.22,7.64-39.41.39-2.33-1.14-5.93-3-7.53-22.1-18.97-29.58-44.45-31.83-71.97-1.34-16.41-.65-32.85,6.45-50.84,24.76,26.81,35.68,57.13,39.45,92.06,5-12.09,10.27-24.08,14.72-36.36.71-1.96-1.87-5.46-3.5-7.86-20.54-30.05-17.35-91.87,7.33-121.55,16.99,29.66,19.72,60.94,16.64,93.72,7.86-10.36,16.03-20.52,23.33-31.26,1.52-2.24.69-6.98-.49-10.01-11.93-30.59,1-81.91,27.45-103.24,9.14,29.8,6.4,57.94-4.35,86.29,8.94-6.13,18.08-11.33,22.1-22.53,12.35-34.4,61.17-67.57,100.16-66.61-6.27,10.38-10.9,20.36-17.59,28.68-19.93,24.8-43.85,42.91-76.89,48.07-9.03,1.41-16.67,11.76-23.32,19.65,14.21-3.08,28.3-7.19,42.67-8.95,14.18-1.74,28.72-1.65,44.35,5.4-5.82,4.66-10.08,8.85-15.04,11.91-27.02,16.69-55.42,26.02-87.37,15.44-2.05-.68-5.91-.25-6.98,1.15-7.49,9.76-14.46,19.92-21.6,29.95.72.73,1.45,1.47,2.17,2.2Z"/>
    <path class="cls-6" d="M915,811.22c-38.73-40.85-43.59-88.11-29.98-139.51,33,33.3,46.76,73.47,44.69,121.06,3.75-5.28,7.83-10.36,11.17-15.88,6.62-10.94,12.77-22.18,19.26-33.21,3.02-5.14,1.74-7.85-3.31-11.31-39.56-27.01-53.72-66.39-53.57-112.44,0-.86.81-1.72,1.98-4.05,37.13,24.73,58.08,58.78,64.19,102.51,1,.09,1.99.17,2.99.26,5.16-17.19,9.99-34.49,15.61-51.53,3.09-9.35.29-12.63-8.86-16.47-31.27-13.12-48.76-39.22-60.37-69.75-2.99-7.86-4.32-16.35-4.97-25.25,38.59,15.33,64.5,41.92,77.27,81.1,1.13-.11,2.25-.22,3.38-.33,1.03-22.31,2.06-44.61,3.07-66.48-49.42-12.71-83.48-39.26-92.01-72.63,37.08,5.1,65.42,22.1,88.93,50.88-.64-5.7-.98-11.46-2-17.09-2.03-11.26-4.68-22.41-6.57-33.68-1.29-7.72-4.94-9.29-12.52-8.22-33.84,4.77-80.25-17.43-96.63-45.58,19.77-11.23,58,.37,101.68,29.59-2.29-6.3-4.29-12.74-6.95-18.88-4.28-9.89-9.26-19.47-13.44-29.4-2.59-6.15-5.72-6.4-11.7-4.23-36.34,13.19-68.33,2.37-98.31-19.09,32.27-14.37,64.03-12.6,95.46,2.93.78-.66,1.55-1.32,2.33-1.98-7.69-10.51-15.18-21.18-23.32-31.32-.94-1.17-5.63.14-8.35,1.02-30.11,9.69-76.05-3.23-98.55-28.91,29.91-9.68,57.9-5.79,85.83,5.96-3.99-10.68-16.91-20.72-26.92-22.39-33.39-5.57-57.26-25.55-76.54-51.89-5.06-6.92-8.73-14.86-13.03-22.33l1.58-2.75c6.29,1.17,12.77,1.73,18.84,3.62,33.29,10.38,62.13,27.4,76.95,60.45,5.35,11.94,13.79,19.13,23.38,27.59-3.1-15.14-7.03-29.14-8.58-43.4-1.58-14.5-1.44-29.35,6.39-46.1,6.43,9.71,12.32,16.97,16.43,25.13,13.45,26.66,20.68,54.11,7.88,83.44-.83,1.9-.12,5.35,1.17,7.14,7.47,10.34,15.32,20.4,24.18,30.63-4.18-32.37-1.14-63.38,16.64-95.71,1.73,3.56,2.65,5.61,3.7,7.59,16.73,31.42,20.91,64.29,11.42,98.73-.53,1.94-.91,4.25-2.18,5.61-19.26,20.41-1.38,37.27,5.45,55.6,2.93-34.34,13.63-65.04,38.58-91.84,7.8,20.08,8.2,38.88,5.91,57.54-3.09,25.25-11.09,48.57-31.68,65.71-1.77,1.48-2.79,5.29-2.38,7.73,2.12,12.9,4.81,25.71,8.27,39.09,11.51-35.25,29.6-65.47,60.69-86.07,1.24.34,2.47.68,3.71,1.02-.4,8.46-.35,16.98-1.3,25.38-2.88,25.67-11.56,49.38-27.91,69.38-7.28,8.91-17.01,16.13-26.61,22.7-5.16,3.53-7.54,6.62-7.36,12.75.36,12.26.11,24.54.11,39.52,18.39-33.39,42.02-57.88,78.04-72.24-1.01,6.38-1.34,10.58-2.37,14.59-9.78,38.08-28.07,71.27-64.87,87.91-15.65,7.08-21.57,15.96-24.25,30.67-1.29,7.07-3.84,13.92-4.95,21.54,25.21-26.24,53.96-44.89,91.65-49.95-.79,3.7-.85,5.78-1.66,7.51-16.22,34.72-41.18,60.54-77.44,74.19-6.77,2.55-14.67,1.95-21.74,3.93-3.9,1.09-8.36,3.76-10.45,7.05-5.85,9.2-10.59,19.1-15.1,29.64,30.7-20.71,63.67-31.63,101.53-28.18-.61,2.17-.62,4-1.51,5.12-26.32,33.24-59.18,56.61-102.79,55.07-17.28-.61-27.51,3.49-36.54,16.38-3.16,4.5-7.37,8.27-10.58,13.41,39.03-14.88,77.79-17.06,116.79-3.49.45,1.12.9,2.24,1.35,3.36-8.16,5.46-15.91,11.69-24.54,16.25-27.98,14.75-57.51,23.25-89.45,17.72-8.83-1.53-17.16-5.71-25.91-7.95-3.34-.86-8-.91-10.69.8-9.91,6.3-19.26,13.5-28.97,21.62,40.11-4.84,78.47-1.39,113.12,20.35.23,1.32.46,2.65.7,3.97-13.4,4.74-26.55,10.48-40.26,14.01-24.83,6.39-50.09,6.92-74.89-.39-8.59-2.53-17.63-6-24.43-11.53-8.25-6.71-14.88-6.55-23.52-1.89-8.18,4.4-17.07,7.5-25.87,12.46,40.84,2.91,77.23,15.54,109.52,46.58-13.55,2.6-24.41,5.75-35.44,6.58-26.95,2.02-53.45-1.42-77.56-14.08-11.07-5.81-20.13-15.39-30.48-22.73-3.34-2.37-8.12-4.7-11.85-4.19-16.99,2.29-33.89,5.3-50.71,8.66-8,1.6-10.72-1.19-11.64-8.88-1.01-8.51,3.64-8.64,10-9.79,24.47-4.42,48.81-9.64,73.16-14.69,2.2-.46,4.2-1.88,7.09-3.22-12.83-31.57-8.16-62.35,3.56-92.65,8.48-21.92,20.66-41.48,39.79-58.9,8.93,26.54,7.7,51.83,2.89,77.36-4.9,25.98-15.97,48.91-34.57,68.2.79,1.02,1.57,2.04,2.36,3.06,22.4-10.82,44.81-21.65,68.28-32.99-21.48-37.51-18.92-74.82-7.89-112.32,5.2-17.69,12.89-34.4,26.7-50.3,21.03,50.89,21.86,99.34-1.7,148.11,24.95-16.04,46.56-35.13,64.89-57.72Z"/>
  </g>
  <text class="cls-5" transform="translate(433.04 528.91)"><tspan x="0" y="0">O</tspan><tspan class="cls-3" x="68.42" y="0">F</tspan><tspan x="113.8" y="0">FICIAL</tspan><tspan x="-44.58" y="119.69">SEL</tspan><tspan class="cls-4" x="101.23" y="119.69">E</tspan><tspan class="cls-1" x="150.7" y="119.69">CTION</tspan></text>
</svg>